<svg width="24" height="24" viewBox="0 0 24 24" fill="none" xmlns="http://www.w3.org/2000/svg">
<path d="M21.6634 7.93124C21.1375 6.67623 20.3725 5.5355 19.411 4.57265C18.4524 3.60812 17.3136 2.84127 16.0595 2.31562C14.7746 1.77452 13.3942 1.49716 12.0001 1.49999H11.9532C10.5352 1.50703 9.16415 1.78828 7.87274 2.3414C6.62931 2.87244 5.50127 3.64066 4.55165 4.60312C3.59945 5.56381 2.84322 6.70054 2.32509 7.95C1.78723 9.24928 1.5147 10.643 1.52352 12.0492C1.53055 13.6758 1.91962 15.2906 2.64618 16.7344V20.2969C2.64618 20.8922 3.12899 21.375 3.72196 21.375H7.27977C8.73026 22.1069 10.3309 22.492 11.9556 22.5H12.0048C13.4063 22.5 14.7634 22.2281 16.0431 21.6961C17.2909 21.1767 18.4254 20.4188 19.3829 19.4648C20.3485 18.5062 21.1079 17.3859 21.6399 16.1367C22.1907 14.843 22.472 13.4672 22.479 12.0469C22.4837 10.6195 22.2071 9.23437 21.6634 7.93124ZM7.32196 13.125C6.70321 13.125 6.1993 12.6211 6.1993 12C6.1993 11.3789 6.70321 10.875 7.32196 10.875C7.94071 10.875 8.44462 11.3789 8.44462 12C8.44462 12.6211 7.94305 13.125 7.32196 13.125ZM12.0001 13.125C11.3813 13.125 10.8774 12.6211 10.8774 12C10.8774 11.3789 11.3813 10.875 12.0001 10.875C12.6188 10.875 13.1227 11.3789 13.1227 12C13.1227 12.6211 12.6188 13.125 12.0001 13.125ZM16.6782 13.125C16.0595 13.125 15.5556 12.6211 15.5556 12C15.5556 11.3789 16.0595 10.875 16.6782 10.875C17.297 10.875 17.8009 11.3789 17.8009 12C17.8009 12.6211 17.297 13.125 16.6782 13.125Z" fill="#567DF4"/>
</svg>
