<svg width="16" height="16" viewBox="0 0 16 16" fill="none" xmlns="http://www.w3.org/2000/svg">
<g opacity="0.6">
<path d="M12.6667 6.23529C12.6667 3.89882 10.5745 2 8.00004 2C5.4256 2 3.33337 3.89882 3.33337 6.23529C3.33337 9.41177 8.00004 14 8.00004 14C8.00004 14 12.6667 9.41177 12.6667 6.23529ZM6.44449 6.23529C6.44449 5.45882 7.14449 4.82353 8.00004 4.82353C8.8556 4.82353 9.5556 5.45882 9.5556 6.23529C9.5556 6.60972 9.39171 6.96881 9.09999 7.23356C8.80826 7.49832 8.4126 7.64706 8.00004 7.64706C7.58748 7.64706 7.19182 7.49832 6.9001 7.23356C6.60837 6.96881 6.44449 6.60972 6.44449 6.23529Z" fill="black"/>
</g>
</svg>
